{
	"asset":{
		"generator":"Khronos glTF Blender I/O v4.2.60",
		"version":"2.0"
	},
	"scene":0,
	"scenes":[
		{
			"name":"Scene",
			"nodes":[
				0,
				1
			]
		}
	],
	"nodes":[
		{
			"mesh":0,
			"name":"Circle",
			"translation":[
				0,
				0.5355507135391235,
				0
			]
		},
		{
			"mesh":1,
			"name":"Cube",
			"scale":[
				0.06426099687814713,
				0.06426099687814713,
				0.06426099687814713
			],
			"translation":[
				0,
				1.4237271547317505,
				0
			]
		}
	],
	"materials":[
		{
			"doubleSided":true,
			"name":"Material",
			"pbrMetallicRoughness":{
				"baseColorFactor":[
					0.8007664680480957,
					0.16633324325084686,
					0,
					1
				],
				"metallicFactor":0,
				"roughnessFactor":0.5
			}
		},
		{
			"doubleSided":true,
			"name":"Material.001",
			"pbrMetallicRoughness":{
				"baseColorFactor":[
					0.052798863500356674,
					0.02027731202542782,
					0.0014262987533584237,
					1
				],
				"metallicFactor":0,
				"roughnessFactor":0.5
			}
		}
	],
	"meshes":[
		{
			"name":"Circle.001",
			"primitives":[
				{
					"attributes":{
						"POSITION":0,
						"NORMAL":1,
						"TEXCOORD_0":2
					},
					"indices":3,
					"material":0
				}
			]
		},
		{
			"name":"Cube",
			"primitives":[
				{
					"attributes":{
						"POSITION":4,
						"NORMAL":5,
						"TEXCOORD_0":6
					},
					"indices":7,
					"material":1
				}
			]
		}
	],
	"accessors":[
		{
			"bufferView":0,
			"componentType":5126,
			"count":1892,
			"max":[
				0.8827182054519653,
				0.9027146697044373,
				0.8720345497131348
			],
			"min":[
				-0.8827182054519653,
				-0.5441367030143738,
				-0.8720345497131348
			],
			"type":"VEC3"
		},
		{
			"bufferView":1,
			"componentType":5126,
			"count":1892,
			"type":"VEC3"
		},
		{
			"bufferView":2,
			"componentType":5126,
			"count":1892,
			"type":"VEC2"
		},
		{
			"bufferView":3,
			"componentType":5123,
			"count":11340,
			"type":"SCALAR"
		},
		{
			"bufferView":4,
			"componentType":5126,
			"count":40,
			"max":[
				2.235626459121704,
				4.304561138153076,
				2.235626459121704
			],
			"min":[
				-2.235626459121704,
				-1.6136668920516968,
				-3.2304587364196777
			],
			"type":"VEC3"
		},
		{
			"bufferView":5,
			"componentType":5126,
			"count":40,
			"type":"VEC3"
		},
		{
			"bufferView":6,
			"componentType":5126,
			"count":40,
			"type":"VEC2"
		},
		{
			"bufferView":7,
			"componentType":5123,
			"count":60,
			"type":"SCALAR"
		}
	],
	"bufferViews":[
		{
			"buffer":0,
			"byteLength":22704,
			"byteOffset":0,
			"target":34962
		},
		{
			"buffer":0,
			"byteLength":22704,
			"byteOffset":22704,
			"target":34962
		},
		{
			"buffer":0,
			"byteLength":15136,
			"byteOffset":45408,
			"target":34962
		},
		{
			"buffer":0,
			"byteLength":22680,
			"byteOffset":60544,
			"target":34963
		},
		{
			"buffer":0,
			"byteLength":480,
			"byteOffset":83224,
			"target":34962
		},
		{
			"buffer":0,
			"byteLength":480,
			"byteOffset":83704,
			"target":34962
		},
		{
			"buffer":0,
			"byteLength":320,
			"byteOffset":84184,
			"target":34962
		},
		{
			"buffer":0,
			"byteLength":120,
			"byteOffset":84504,
			"target":34963
		}
	],
	"buffers":[
		{
			"byteLength":84624,
			"uri":"data:application/octet-stream;base64,"
		}
	]
}
